<svg width="40" height="40" viewBox="0 0 40 40" fill="none" xmlns="http://www.w3.org/2000/svg">
<path d="M20.0031 3.50496C29.1141 3.50521 36.4999 10.8911 36.5001 20.002C36.5001 29.1132 29.1142 36.4998 20.0031 36.5001C10.8917 36.5001 3.505 29.1133 3.505 20.002C3.50525 10.8909 10.8918 3.50496 20.0031 3.50496Z" fill="white" stroke="#757575" stroke-width="7"/>
<path d="M3.50488 20.0752L3.50391 20.0352C3.30316 11.1696 10.9029 3.52764 19.8096 3.5C22.281 4.23265 23.741 6.42207 26.2939 10.6963C28.4436 14.2954 31.2065 18.9416 36.375 22.0596C35.3842 30.183 28.5365 36.5 20.0957 36.5C10.8987 36.4998 3.50488 29.1294 3.50488 20.1143V20.0752Z" fill="white" stroke="black" stroke-width="7"/>
</svg>
